<svg width="26" height="26" viewBox="0 0 26 26" fill="none" xmlns="http://www.w3.org/2000/svg">
<path fill-rule="evenodd" clip-rule="evenodd" d="M22.8735 14.6935L25.0268 15.8839C25.2744 16.0193 25.3856 16.3 25.3098 16.5661C24.7488 18.2935 23.7935 19.8516 22.545 21.1435C22.3529 21.3467 22.0446 21.3903 21.7969 21.2548L19.6437 20.0645C18.7339 20.8048 17.6926 21.3806 16.5705 21.7629V24.1435C16.5705 24.4145 16.3734 24.6516 16.0954 24.7096C14.3314 25.087 12.4309 25.1064 10.5758 24.7096C10.2978 24.6516 10.1007 24.4145 10.1007 24.1435V21.7629C8.97356 21.3854 7.93232 20.8096 7.02756 20.0645L4.87433 21.2548C4.63171 21.3903 4.31833 21.3419 4.12625 21.1435C2.87778 19.8467 1.92248 18.2887 1.36142 16.5661C1.28055 16.3048 1.39175 16.0242 1.63942 15.8887L3.79265 14.6984C3.57531 13.5758 3.57531 12.4242 3.79265 11.3016L1.63942 10.1113C1.39175 9.97582 1.2755 9.69517 1.36142 9.43388C1.92248 7.70647 2.87778 6.14841 4.12625 4.85648C4.31833 4.65326 4.62665 4.60971 4.87433 4.74519L7.0225 5.93551C7.93232 5.19519 8.97356 4.61939 10.0957 4.23713V1.85649C10.0957 1.58553 10.2928 1.34843 10.5708 1.29037C12.3348 0.912949 14.2353 0.893594 16.0903 1.29037C16.3683 1.34843 16.5655 1.58553 16.5655 1.85649V4.23229C17.6926 4.60971 18.7339 5.18551 19.6386 5.93067L21.7919 4.74035C22.0345 4.60487 22.3479 4.65326 22.5399 4.85164C23.7884 6.14841 24.7437 7.70647 25.3048 9.42904C25.3856 9.69033 25.2744 9.97098 25.0268 10.1065L22.8735 11.2968C23.0909 12.4194 23.0909 13.571 22.8735 14.6935ZM13.3333 20C17.1993 20 20.3333 16.866 20.3333 13C20.3333 9.13401 17.1993 6 13.3333 6C9.46732 6 6.33331 9.13401 6.33331 13C6.33331 16.866 9.46732 20 13.3333 20Z" stroke="#818181"/>
<path d="M11.9079 15L10.8879 11.51H10.1229L9.10293 15H9.67293L9.93793 14.07H11.0479L11.3129 15H11.9079ZM10.9429 13.605H10.0429L10.4729 12.075H10.5129L10.9429 13.605ZM12.981 15V13.61H13.726C14.386 13.61 14.751 13.21 14.751 12.56C14.751 11.91 14.386 11.51 13.726 11.51H12.421V15H12.981ZM12.981 11.975H13.641C13.991 11.975 14.161 12.13 14.161 12.45V12.665C14.161 12.985 13.991 13.145 13.641 13.145H12.981V11.975ZM17.599 15V14.575H16.779V11.935H17.599V11.51H15.399V11.935H16.219V14.575H15.399V15H17.599Z" fill="#818181"/>
</svg>
