<svg width="100" height="100" viewBox="0 0 100 100" fill="none" xmlns="http://www.w3.org/2000/svg">
<path fill-rule="evenodd" clip-rule="evenodd" d="M68.0553 55.0351L68.3558 53.4139C68.774 51.1575 68.774 48.8426 68.3558 46.5862L68.0553 44.9649L73.4288 41.8619C72.3868 38.8709 70.7873 36.1348 68.7527 33.7791L63.3833 36.8798L62.1283 35.8001C60.3912 34.3056 58.3929 33.1513 56.2297 32.3947L54.6667 31.848V25.6552C51.5287 25.0616 48.3416 25.0863 45.3334 25.6552V31.8495L43.7823 32.4014C41.622 33.1702 39.6156 34.3289 37.8613 35.8201L36.6065 36.8866L31.2565 33.7899C29.2232 36.1368 27.6237 38.8725 26.5817 41.8725L31.9558 44.9758L31.6553 46.5971C31.2371 48.8535 31.2371 51.1684 31.6553 53.4248L31.9558 55.0461L26.5823 58.1491C27.6243 61.1401 29.2237 63.8762 31.2583 66.2319L36.6278 63.1312L37.8828 64.2109C39.6198 65.7054 41.6182 66.8597 43.7814 67.6163L45.3443 68.163V74.3668C48.4824 74.9604 51.6695 74.9356 54.6777 74.3668V68.1724L56.2287 67.6205C58.3891 66.8517 60.3955 65.693 62.1498 64.2019L63.4033 63.1364L68.765 66.2326C70.7994 63.8847 72.3996 61.1474 73.4417 58.1456L68.0553 55.0351ZM74.1426 58.5503L74.6234 57.7178L74.6296 57.7194L74.1518 58.5556L74.1426 58.5503ZM74.6536 57.6775L74.6477 57.6757L75.3094 56.5297L74.6536 57.6775ZM70.6501 53.8391L75.3094 56.5297C75.8454 56.836 76.086 57.4703 75.922 58.0719C74.7079 61.9766 72.6407 65.4985 69.9391 68.4188C69.5235 68.8782 68.8563 68.9766 68.3204 68.6703L63.661 65.9797C61.6923 67.6532 59.4391 68.9547 57.011 69.8188V75.2C57.011 75.8125 56.5844 76.3485 55.9829 76.4797C52.1657 77.3328 48.0532 77.3766 44.0391 76.4797C43.4376 76.3485 43.011 75.8125 43.011 75.2V69.8188C40.5719 68.9657 38.3188 67.6641 36.361 65.9797L31.7016 68.6703C31.1766 68.9766 30.4985 68.8672 30.0829 68.4188C27.3813 65.4875 25.3141 61.9657 24.1001 58.0719C23.9251 57.4813 24.1657 56.8469 24.7016 56.5407L29.361 53.85C28.8907 51.3125 28.8907 48.7094 29.361 46.1719L24.7016 43.4813C24.1657 43.175 23.9141 42.5407 24.1001 41.95C25.3141 38.0453 27.3813 34.5235 30.0829 31.6032C30.4985 31.1438 31.1657 31.0453 31.7016 31.3516L36.3501 34.0422C38.3188 32.3688 40.5719 31.0672 43.0001 30.2032V24.8219C43.0001 24.2094 43.4266 23.6735 44.0282 23.5422C47.8454 22.6891 51.9579 22.6453 55.9719 23.5422C56.5735 23.6735 57.0001 24.2094 57.0001 24.8219V30.1922C59.4391 31.0453 61.6923 32.3469 63.6501 34.0313L68.3094 31.3407C68.8344 31.0344 69.5126 31.1438 69.9282 31.5922C72.6298 34.5235 74.6969 38.0453 75.911 41.9391C76.086 42.5297 75.8454 43.1641 75.3094 43.4703L70.6501 46.161C71.1204 48.6985 71.1204 51.3016 70.6501 53.8391ZM44.5256 25.8219L44.536 25.8196L44.5256 25.8219ZM50.0001 61.6667C43.888 61.6667 38.3333 56.1121 38.3333 50C38.3333 43.8879 43.888 38.3334 50.0001 38.3334C56.1122 38.3334 61.6667 43.8879 61.6667 50C61.6667 56.1121 56.1122 61.6667 50.0001 61.6667ZM40.6667 50C40.6667 54.8235 45.1766 59.3334 50.0001 59.3334C54.8235 59.3334 59.3333 54.8235 59.3333 50C59.3333 45.1766 54.8235 40.6667 50.0001 40.6667C45.1766 40.6667 40.6667 45.1766 40.6667 50Z" fill="#0071BC"/>
<path d="M75.3094 56.5297L74.6477 57.6757L74.6536 57.6775L75.3094 56.5297ZM75.3094 56.5297L70.6501 53.8391C71.1204 51.3016 71.1204 48.6985 70.6501 46.161L75.3094 43.4703C75.8454 43.1641 76.086 42.5297 75.911 41.9391C74.6969 38.0453 72.6298 34.5235 69.9282 31.5922C69.5126 31.1438 68.8344 31.0344 68.3094 31.3407L63.6501 34.0313C61.6923 32.3469 59.4391 31.0453 57.0001 30.1922V24.8219C57.0001 24.2094 56.5735 23.6735 55.9719 23.5422C51.9579 22.6453 47.8454 22.6891 44.0282 23.5422C43.4266 23.6735 43.0001 24.2094 43.0001 24.8219V30.2032C40.5719 31.0672 38.3188 32.3688 36.3501 34.0422L31.7016 31.3516C31.1657 31.0453 30.4985 31.1438 30.0829 31.6032C27.3813 34.5235 25.3141 38.0453 24.1001 41.95C23.9141 42.5407 24.1657 43.175 24.7016 43.4813L29.361 46.1719C28.8907 48.7094 28.8907 51.3125 29.361 53.85L24.7016 56.5407C24.1657 56.8469 23.9251 57.4813 24.1001 58.0719C25.3141 61.9657 27.3813 65.4875 30.0829 68.4188C30.4985 68.8672 31.1766 68.9766 31.7016 68.6703L36.361 65.9797C38.3188 67.6641 40.5719 68.9657 43.011 69.8188V75.2C43.011 75.8125 43.4376 76.3485 44.0391 76.4797C48.0532 77.3766 52.1657 77.3328 55.9829 76.4797C56.5844 76.3485 57.011 75.8125 57.011 75.2V69.8188C59.4391 68.9547 61.6923 67.6532 63.661 65.9797L68.3204 68.6703C68.8563 68.9766 69.5235 68.8782 69.9391 68.4188C72.6407 65.4985 74.7079 61.9766 75.9219 58.0719C76.086 57.4703 75.8454 56.836 75.3094 56.5297ZM30.5259 66.6549L30.5348 66.6497M44.5256 25.8219L44.536 25.8196M68.3558 53.4139L68.0553 55.0351L73.4417 58.1456C72.3996 61.1474 70.7994 63.8847 68.765 66.2326L63.4033 63.1364L62.1498 64.2019C60.3955 65.693 58.3891 66.8517 56.2287 67.6205L54.6777 68.1724V74.3668C51.6695 74.9356 48.4824 74.9604 45.3443 74.3668V68.163L43.7814 67.6163C41.6182 66.8597 39.6198 65.7054 37.8828 64.2109L36.6278 63.1312L31.2583 66.2319C29.2237 63.8762 27.6243 61.1401 26.5823 58.1491L31.9558 55.0461L31.6553 53.4248C31.2371 51.1684 31.2371 48.8535 31.6553 46.5971L31.9558 44.9758L26.5817 41.8725C27.6237 38.8725 29.2232 36.1368 31.2565 33.7899L36.6065 36.8866L37.8613 35.8201C39.6156 34.3289 41.622 33.1702 43.7823 32.4014L45.3334 31.8495V25.6552C48.3416 25.0863 51.5287 25.0616 54.6667 25.6552V31.848L56.2297 32.3947C58.3929 33.1513 60.3912 34.3056 62.1283 35.8001L63.3833 36.8798L68.7527 33.7791C70.7873 36.1348 72.3868 38.8709 73.4288 41.8619L68.0553 44.9649L68.3558 46.5862C68.774 48.8426 68.774 51.1575 68.3558 53.4139ZM74.1426 58.5503L74.6234 57.7178L74.6296 57.7194L74.1518 58.5556L74.1426 58.5503ZM38.3333 50C38.3333 56.1121 43.888 61.6667 50.0001 61.6667C56.1122 61.6667 61.6667 56.1121 61.6667 50C61.6667 43.8879 56.1122 38.3334 50.0001 38.3334C43.888 38.3334 38.3333 43.8879 38.3333 50ZM50.0001 59.3334C45.1766 59.3334 40.6667 54.8235 40.6667 50C40.6667 45.1766 45.1766 40.6667 50.0001 40.6667C54.8235 40.6667 59.3333 45.1766 59.3333 50C59.3333 54.8235 54.8235 59.3334 50.0001 59.3334Z" stroke="#0071BC" stroke-width="2"/>
</svg>
