<svg width="100" height="100" viewBox="0 0 100 100" fill="none" xmlns="http://www.w3.org/2000/svg">
<path fill-rule="evenodd" clip-rule="evenodd" d="M12.5298 25.5032C11.2443 26.7377 10.7118 28.6487 11.3215 30.4484L14.5016 39.8343L12.5298 25.5032ZM32.6094 89.9751C33.7761 90.7091 35.2516 90.9308 36.6589 90.454L41.8077 88.7095L32.6094 89.9751ZM84.0916 74.1401C85.6952 72.9452 86.4244 70.8116 85.748 68.8152L81.7254 56.9424L84.0916 74.1401ZM62.1814 8.56412L60.42 8.80647C61.0045 8.60976 61.6006 8.53342 62.1814 8.56412Z" fill="#0071BC"/>
<path fill-rule="evenodd" clip-rule="evenodd" d="M16.4389 20.1163C16.3941 20.2709 16.3803 20.4372 16.4037 20.6069L16.4389 20.8628V46.9569L12.8802 21.0917C12.5457 18.661 14.1165 16.4075 16.4496 15.8389C16.4425 15.9553 16.4389 16.0727 16.4389 16.1909V20.1163ZM24.6581 89.4586C25.41 89.7704 26.2522 89.8925 27.1168 89.7735L29.4053 89.4586H24.6581ZM82.3561 81.0717C83.2759 80.0671 83.7582 78.6758 83.558 77.221L82.3561 68.4853V81.0717ZM73.8417 10.5002C72.8519 9.10174 71.136 8.28955 69.3214 8.53922L55.0687 10.5002H73.8417ZM17.3877 16.1296C17.3874 16.15 17.3873 16.1704 17.3873 16.1909V16.1909C17.3873 16.1704 17.3874 16.15 17.3877 16.1296Z" fill="#0071BC"/>
<path fill-rule="evenodd" clip-rule="evenodd" d="M76.6654 15.0053H22.1296C21.4748 15.0053 20.944 15.5361 20.944 16.1909V83.7679C20.944 84.4227 21.4748 84.9535 22.1296 84.9535H76.6654C77.3202 84.9535 77.851 84.4227 77.851 83.7679V16.1909C77.851 15.5361 77.3202 15.0053 76.6654 15.0053ZM22.1296 11.4486C19.5105 11.4486 17.3873 13.5718 17.3873 16.1909V83.7679C17.3873 86.387 19.5105 88.5101 22.1296 88.5101H76.6654C79.2845 88.5101 81.4077 86.387 81.4077 83.7679V16.1909C81.4077 13.5718 79.2845 11.4486 76.6654 11.4486H22.1296Z" fill="#0071BC"/>
<path d="M28.0574 56.5C28.0574 55.5178 28.8536 54.7216 29.8357 54.7216H69.552C70.5342 54.7216 71.3304 55.5178 71.3304 56.5C71.3304 57.4821 70.5342 58.2783 69.552 58.2783H29.8357C28.8536 58.2783 28.0574 57.4821 28.0574 56.5Z" fill="#0071BC"/>
<path d="M28.0574 64.2061C28.0574 63.224 28.8536 62.4278 29.8357 62.4278H69.552C70.5342 62.4278 71.3304 63.224 71.3304 64.2061C71.3304 65.1883 70.5342 65.9845 69.552 65.9845H29.8357C28.8536 65.9845 28.0574 65.1883 28.0574 64.2061Z" fill="#0071BC"/>
<path d="M28.0574 72.5051C28.0574 71.5229 28.8536 70.7267 29.8357 70.7267H69.552C70.5342 70.7267 71.3304 71.5229 71.3304 72.5051C71.3304 73.4872 70.5342 74.2834 69.552 74.2834H29.8357C28.8536 74.2834 28.0574 73.4872 28.0574 72.5051Z" fill="#0071BC"/>
<path fill-rule="evenodd" clip-rule="evenodd" d="M67.7737 25.6753H31.6141L31.6141 42.866H67.7737V25.6753ZM31.6141 22.1187C29.6498 22.1187 28.0574 23.711 28.0574 25.6753V42.866C28.0574 44.8303 29.6498 46.4227 31.6141 46.4227H67.7737C69.738 46.4227 71.3304 44.8303 71.3304 42.866V25.6753C71.3304 23.711 69.738 22.1187 67.7737 22.1187H31.6141Z" fill="#0071BC"/>
</svg>
