<svg width="100" height="100" viewBox="0 0 100 100" fill="none" xmlns="http://www.w3.org/2000/svg">
<path fill-rule="evenodd" clip-rule="evenodd" d="M23.9236 23.9546C23.9 23.9821 23.75 24.1968 23.75 25V28.4375H42.4916C42.4278 26.1195 42.0112 24.9173 41.6326 24.3368C41.312 23.8451 40.9985 23.75 40.625 23.75H25C24.5221 23.75 24.2401 23.8109 24.0877 23.8654C23.9567 23.9121 23.9261 23.9514 23.9236 23.9546C23.9236 23.9546 23.9235 23.9547 23.9236 23.9546ZM46.2211 27.8312L47.949 28.5991L47.1875 32.1875H20V25C20 23.9282 20.1625 22.5804 21.0764 21.5141C22.0438 20.3855 23.4678 20 25 20H40.625C42.1265 20 43.688 20.6236 44.7736 22.2883C45.6282 23.5986 46.1039 25.4282 46.2211 27.8312Z" fill="#0071BC"/>
<path fill-rule="evenodd" clip-rule="evenodd" d="M21.25 32.5H78.75C79.4404 32.5 80 33.0596 80 33.75V68.75C80 69.4404 79.4404 70 78.75 70H70.1189L72.5903 73.1943L71.872 73.75H78.75C81.5114 73.75 83.75 71.5114 83.75 68.75V33.75C83.75 30.9886 81.5114 28.75 78.75 28.75H21.25C18.4886 28.75 16.25 30.9886 16.25 33.75V68.75C16.25 71.5114 18.4886 73.75 21.25 73.75H58.7963L55.895 70H21.25C20.5596 70 20 69.4404 20 68.75V33.75C20 33.0596 20.5596 32.5 21.25 32.5ZM59.0559 70L61.9572 73.75H67.7865L69.0832 72.7468L66.958 70H59.0559Z" fill="#0071BC"/>
<path d="M56.4909 66.6848L61.4342 62.8603L69.0832 72.7467L64.1399 76.5712L56.4909 66.6848Z" fill="#333333"/>
<path fill-rule="evenodd" clip-rule="evenodd" d="M57.1986 47.1719C60.3669 51.2671 59.6156 57.1552 55.5205 60.3236C51.4254 63.4919 45.5372 62.7406 42.3689 58.6454C39.2005 54.5503 39.9518 48.6621 44.047 45.4938C48.1421 42.3255 54.0303 43.0768 57.1986 47.1719ZM58.4432 61.0371C62.3756 56.858 62.7987 50.3247 59.1759 45.6421C55.1627 40.455 47.7043 39.5033 42.5172 43.5165C37.33 47.5297 36.3783 54.9881 40.3916 60.1752C44.0144 64.8578 50.4446 66.0888 55.4772 63.3318L64.7461 75.312L67.7121 73.0173L58.4432 61.0371Z" fill="#0071BC"/>
<rect x="56.4909" y="66.6848" width="6.25" height="12.5" transform="rotate(-37.7285 56.4909 66.6848)" fill="#0071BC"/>
<path d="M44.2302 47.7734C46.1983 45.8773 51.3273 43.4308 56.0981 48.8136" stroke="#0071BC" stroke-width="1.25"/>
</svg>
