<svg width="100" height="100" viewBox="0 0 100 100" fill="none" xmlns="http://www.w3.org/2000/svg">
<path fill-rule="evenodd" clip-rule="evenodd" d="M26.417 86.0391C26.762 88.0049 28.4778 89.4988 30.5425 89.4988H75.5708C77.8841 89.4988 79.7594 87.6235 79.7594 85.3102V29.2866C79.7594 27.0987 78.082 25.3026 75.943 25.1142V28.3075C76.3376 28.4576 76.6179 28.8393 76.6179 29.2866V85.3102C76.6179 85.8885 76.1491 86.3573 75.5708 86.3573H30.5425C30.2475 86.3573 29.981 86.2353 29.7907 86.0391H26.417Z" fill="#0071BC"/>
<path fill-rule="evenodd" clip-rule="evenodd" d="M70.9166 20.2768H22.7468C22.1684 20.2768 21.6996 20.7457 21.6996 21.324V81.0127C21.6996 81.591 22.1684 82.0598 22.7468 82.0598H70.9166C71.4949 82.0598 71.9638 81.591 71.9638 81.0127V21.324C71.9638 20.7457 71.4949 20.2768 70.9166 20.2768ZM22.7468 17.1353C20.4334 17.1353 18.5581 19.0107 18.5581 21.324V81.0127C18.5581 83.326 20.4334 85.2014 22.7468 85.2014H70.9166C73.2299 85.2014 75.1053 83.326 75.1053 81.0127V21.324C75.1053 19.0107 73.2299 17.1353 70.9166 17.1353H22.7468Z" fill="#0071BC"/>
<path d="M27.9827 54.4187C27.9827 53.5512 28.6859 52.8479 29.5534 52.8479H64.6336C65.5011 52.8479 66.2044 53.5512 66.2044 54.4187C66.2044 55.2862 65.5011 55.9894 64.6336 55.9894H29.5534C28.6859 55.9894 27.9827 55.2862 27.9827 54.4187Z" fill="#0071BC"/>
<path d="M27.9827 47.0885C27.9827 46.221 28.6859 45.5177 29.5534 45.5177H64.6336C65.5011 45.5177 66.2044 46.221 66.2044 47.0885C66.2044 47.956 65.5011 48.6592 64.6336 48.6592H29.5534C28.6859 48.6592 27.9827 47.956 27.9827 47.0885Z" fill="#0071BC"/>
<path d="M34.7311 37.6639C34.7311 36.5072 35.6687 35.5696 36.8254 35.5696H57.2452C58.4019 35.5696 59.3396 36.5072 59.3396 37.6639C59.3396 38.8206 58.4019 39.7583 57.2452 39.7583H36.8254C35.6687 39.7583 34.7311 38.8206 34.7311 37.6639Z" fill="#0071BC"/>
<path d="M27.9827 61.7489C27.9827 60.8814 28.6859 60.1781 29.5534 60.1781H64.6336C65.5011 60.1781 66.2044 60.8814 66.2044 61.7489C66.2044 62.6164 65.5011 63.3196 64.6336 63.3196H29.5534C28.6859 63.3196 27.9827 62.6164 27.9827 61.7489Z" fill="#0071BC"/>
<path d="M45.2029 73.2677C45.2029 72.4002 45.9061 71.697 46.7736 71.697H64.5755C65.443 71.697 66.1463 72.4002 66.1463 73.2677C66.1463 74.1352 65.443 74.8385 64.5755 74.8385H46.7736C45.9061 74.8385 45.2029 74.1352 45.2029 73.2677Z" fill="#0071BC"/>
<path fill-rule="evenodd" clip-rule="evenodd" d="M36.6257 68.0319H31.066C29.9093 68.0319 28.9717 68.9695 28.9717 70.1262L28.9717 72.5184C29.0989 72.0723 29.3419 71.6529 29.6999 71.3077C30.092 70.9296 30.5684 70.6926 31.066 70.5956V70.1262H35.0466L36.6257 68.0319ZM31.066 72.3606C30.9938 72.4023 30.9255 72.4534 30.8628 72.5139C30.4465 72.9153 30.4344 73.5782 30.8358 73.9945L31.066 74.2333L31.066 72.3606ZM32.1544 75.362L33.36 76.6125C33.5727 76.8331 33.8713 76.9494 34.1772 76.9309C34.4831 76.9123 34.7655 76.7607 34.95 76.5161L35.8201 75.362H32.1544ZM36.8255 74.0287L36.8255 70.55L38.2807 68.62C38.6747 69.0008 38.9198 69.5349 38.9198 70.1262V71.2511L36.8255 74.0287ZM38.9198 74.034L36.3393 77.4564H36.8255C37.9821 77.4564 38.9198 76.5187 38.9198 75.362V74.034ZM31.8463 77.4564L29.6297 75.1575C29.3092 74.8251 29.0901 74.4323 28.9717 74.0173L28.9717 75.362C28.9717 76.5187 29.9093 77.4564 31.066 77.4564H31.8463Z" fill="#0071BC"/>
<path fill-rule="evenodd" clip-rule="evenodd" d="M40.0739 67.9811C40.5356 68.3293 40.6277 68.9859 40.2796 69.4477L34.95 76.5161C34.7655 76.7608 34.4831 76.9124 34.1772 76.9309C33.8713 76.9494 33.5727 76.8331 33.36 76.6125L30.8358 73.9946C30.4344 73.5782 30.4465 72.9153 30.8628 72.5139C31.2791 72.1125 31.9421 72.1245 32.3435 72.5409L34.0162 74.2757L38.6073 68.1868C38.9555 67.725 39.6121 67.6329 40.0739 67.9811Z" fill="#0071BC"/>
<path fill-rule="evenodd" clip-rule="evenodd" d="M27.2706 11.6119C28.257 9.99426 30.1531 8.60498 33.4222 8.60498C36.6912 8.60498 38.5873 9.99426 39.5737 11.6119C40.0362 12.3704 40.2615 13.1171 40.3732 13.6664C40.4296 13.9438 40.4587 14.1795 40.4739 14.3536C40.4815 14.441 40.4857 14.5136 40.4879 14.5692C40.489 14.597 40.4897 14.6207 40.4901 14.6398L40.4905 14.6652L40.4905 14.6753L40.4905 14.6797L40.4906 14.6817C40.4906 14.6817 40.4906 14.6836 38.9223 14.6836H40.4906V26.7607C40.4906 28.0471 39.9959 29.2543 39.0055 30.1214C38.0317 30.9739 36.7161 31.3809 35.2547 31.3809C33.8019 31.3809 32.3907 30.9798 31.3061 30.1271C30.1891 29.249 29.4953 27.9435 29.4953 26.382V22.6451H32.6368V26.382C32.6368 26.9435 32.8592 27.3521 33.2476 27.6574C33.6682 27.988 34.3514 28.2394 35.2547 28.2394C36.1495 28.2394 36.6664 27.9939 36.9361 27.7577C37.1892 27.5361 37.349 27.2186 37.349 26.7607V14.6982L37.349 14.6968C37.3486 14.6864 37.3474 14.6622 37.3442 14.6263C37.3379 14.5538 37.3241 14.4374 37.2946 14.2922C37.2345 13.9963 37.1162 13.6159 36.8915 13.2475C36.5035 12.6112 35.6508 11.7465 33.4222 11.7465C31.1936 11.7465 30.3408 12.6112 29.9528 13.2475C29.7281 13.6159 29.6098 13.9963 29.5497 14.2922C29.5202 14.4374 29.5064 14.5538 29.5001 14.6263C29.497 14.6622 29.4957 14.6864 29.4953 14.6968L29.4953 14.698V17.3375H26.3538V14.6836H27.9245C26.3538 14.6836 26.3538 14.6817 26.3538 14.6817L26.3538 14.6797L26.3538 14.6753L26.3539 14.6652L26.3542 14.6398C26.3546 14.6207 26.3553 14.597 26.3564 14.5692C26.3587 14.5136 26.3628 14.441 26.3704 14.3536C26.3856 14.1795 26.4148 13.9438 26.4711 13.6664C26.5828 13.1171 26.8081 12.3704 27.2706 11.6119Z" fill="#0071BC"/>
</svg>
