<?xml version="1.0" encoding="UTF-8"?>
<svg width="32px" height="32px" viewBox="0 0 32 32" version="1.1" xmlns="http://www.w3.org/2000/svg" xmlns:xlink="http://www.w3.org/1999/xlink">
    <!-- Generator: Sketch 51.2 (57519) - http://www.bohemiancoding.com/sketch -->
    <title>external-round</title>
    <desc>Created with Sketch.</desc>
    <defs>
        <circle id="path-1" cx="16" cy="16" r="16"></circle>
    </defs>
    <g id="Page-1" stroke="none" stroke-width="1" fill="none" fill-rule="evenodd">
        <g id="external-round">
            <g id="Oval">
                <g id="path-1-Clipped">
                    <mask id="mask-2" fill="white">
                        <use xlink:href="#path-1"></use>
                    </mask>
                    <g id="path-1"></g>
                    <circle id="path-1" stroke="#7FB142" stroke-width="32" mask="url(#mask-2)" cx="16" cy="16" r="16"></circle>
                </g>
            </g>
            <path d="M25.4756098,15.9756097 C25.4756098,15.5609756 25.3170731,15.1585366 25.0243903,14.8780489 L17.0853659,6.9390244 C16.792683,6.64634147 16.390244,6.47560977 15.9756097,6.47560977 C15.5609756,6.47560977 15.1707317,6.64634147 14.8780487,6.9390244 L13.9634146,7.85365855 C13.6707317,8.13414635 13.5,8.53658539 13.5,8.95121953 C13.5,9.36585367 13.6707317,9.7682927 13.9634146,10.0487805 L17.5365854,13.6341463 L8.95121951,13.6341463 C8.07317071,13.6341463 7.52439023,14.3658536 7.52439023,15.195122 L7.52439023,16.7560976 C7.52439023,17.5853659 8.07317071,18.3170733 8.95121951,18.3170733 L17.5365854,18.3170733 L13.9634146,21.890244 C13.6707317,22.182927 13.5,22.585366 13.5,23 C13.5,23.4146341 13.6707317,23.8170731 13.9634146,24.1097561 L14.8780487,25.0243903 C15.1707317,25.3048781 15.5609756,25.4756098 15.9756097,25.4756098 C16.390244,25.4756098 16.792683,25.3048781 17.0853659,25.0243903 L25.0243903,17.0853659 C25.3170731,16.792683 25.4756098,16.390244 25.4756098,15.9756097 Z" id="ï¡" fill="#FFFFFF" fill-rule="nonzero" transform="translate(16.500000, 15.975610) rotate(90.000000) translate(-16.500000, -15.975610) "></path>
        </g>
    </g>
</svg>