<?xml version="1.0" encoding="UTF-8" standalone="no"?>
<svg width="32px" height="32px" viewBox="0 0 32 32" version="1.1" xmlns="http://www.w3.org/2000/svg" xmlns:xlink="http://www.w3.org/1999/xlink">
    <!-- Generator: Sketch 39.1 (31720) - http://www.bohemiancoding.com/sketch -->
    <title>external-round-32x32</title>
    <desc>Created with Sketch.</desc>
    <defs>
        <circle id="path-1" cx="16" cy="16" r="16"></circle>
        <mask id="mask-2" maskContentUnits="userSpaceOnUse" maskUnits="objectBoundingBox" x="0" y="0" width="32" height="32" fill="white">
            <use xlink:href="#path-1"></use>
        </mask>
    </defs>
    <g id="bg-white" stroke="none" stroke-width="1" fill="none" fill-rule="evenodd">
        <g id="external-round-32x32">
            <use id="Oval" stroke="#0088CC" mask="url(#mask-2)" stroke-width="4" xlink:href="#path-1"></use>
            <path d="M22.6996149,16 C22.6996149,15.6726573 22.5744544,15.3549422 22.343389,15.1335045 L16.0757381,8.86585366 C15.8446727,8.63478819 15.5269576,8.5 15.1996149,8.5 C14.8722721,8.5 14.5641849,8.63478819 14.3331194,8.86585366 L13.6110398,9.58793325 C13.3799743,9.80937099 13.2451861,10.127086 13.2451861,10.4544288 C13.2451861,10.7817715 13.3799743,11.0994865 13.6110398,11.3209243 L16.4319641,14.1514763 L9.65404365,14.1514763 C8.96084724,14.1514763 8.52759949,14.7291399 8.52759949,15.3838254 L8.52759949,16.6161746 C8.52759949,17.2708601 8.96084724,17.8485237 9.65404365,17.8485237 L16.4319641,17.8485237 L13.6110398,20.669448 C13.3799743,20.9005135 13.2451861,21.2182285 13.2451861,21.5455712 C13.2451861,21.872914 13.3799743,22.190629 13.6110398,22.4216945 L14.3331194,23.1437741 C14.5641849,23.3652118 14.8722721,23.5 15.1996149,23.5 C15.5269576,23.5 15.8446727,23.3652118 16.0757381,23.1437741 L22.343389,16.8761232 C22.5744544,16.6450578 22.6996149,16.3273427 22.6996149,16 L22.6996149,16 Z" id="ï¡" fill="#0086CC"></path>
        </g>
    </g>
</svg>