<?xml version="1.0" encoding="UTF-8" standalone="no"?><!DOCTYPE svg PUBLIC "-//W3C//DTD SVG 1.1//EN" "http://www.w3.org/Graphics/SVG/1.1/DTD/svg11.dtd"><svg width="100%" height="100%" viewBox="0 0 120 25" version="1.1" xmlns="http://www.w3.org/2000/svg" xmlns:xlink="http://www.w3.org/1999/xlink" xml:space="preserve" style="fill-rule:evenodd;clip-rule:evenodd;stroke-linejoin:round;stroke-miterlimit:1.41421;"><rect id="Artboard1" x="0" y="0" width="120" height="24.59" style="fill:none;"/><g><clipPath id="_clip1"><path d="M15.101,19.656c1.557,-0.019 3.036,-0.247 4.344,-0.687c0.329,-0.111 0.644,-0.233 0.941,-0.366c-0.364,0.889 -0.899,1.63 -1.596,2.181c-1.375,1.012 -2.997,1.707 -4.758,1.972c0.44,-0.761 0.795,-1.837 1.069,-3.1m-7.33,2.159c-0.033,-0.027 -0.068,-0.052 -0.107,-0.07c-0.613,-0.299 -0.861,-1.665 -0.541,-3.753c1.177,0.529 2.459,0.948 3.806,1.236c1.021,0.218 2.039,0.353 3.033,0.405c-0.487,2.12 -1.112,3.233 -1.527,3.233c-0.026,0 -0.052,0.005 -0.077,0.009c-1.641,-0.011 -3.197,-0.389 -4.587,-1.06m-5.688,-6.752c-0.094,-0.358 -0.153,-0.724 -0.177,-1.095c0.368,0.525 0.817,1.036 1.352,1.53c0.807,0.746 1.765,1.413 2.833,1.985c-0.218,1.22 -0.279,2.326 -0.142,3.216c-1.84,-1.391 -3.217,-3.361 -3.866,-5.636m13.712,-2.962c0,-0.431 -0.006,-0.864 -0.019,-1.295c1.373,-0.091 2.643,-0.448 3.684,-1.046c0.963,1.906 1.48,3.917 1.476,5.814c-0.001,0.55 -0.048,1.073 -0.136,1.566c-0.495,0.304 -1.066,0.567 -1.707,0.783c-1.139,0.384 -2.423,0.593 -3.783,0.628c0.328,-1.961 0.485,-4.237 0.485,-6.45m-4.634,6.049c-1.367,-0.293 -2.658,-0.727 -3.827,-1.276c0.384,-1.727 1.099,-3.82 2.232,-6.143c0.164,-0.337 0.332,-0.668 0.503,-0.991c0.792,0.355 1.655,0.637 2.559,0.83c0.686,0.148 1.373,0.228 2.045,0.251c0.013,0.413 0.018,0.84 0.018,1.28c0,2.597 -0.207,4.753 -0.507,6.438c-0.986,-0.043 -2.002,-0.171 -3.023,-0.389m-7.154,-3.461c-0.937,-0.866 -1.581,-1.783 -1.91,-2.693c0.261,-1.021 0.764,-2.045 1.505,-3.026c0.702,-0.931 1.577,-1.768 2.579,-2.489c0.289,0.523 0.695,1.033 1.211,1.517c0.49,0.459 1.061,0.875 1.695,1.239c-0.174,0.331 -0.345,0.668 -0.511,1.01c-0.979,2.006 -1.778,4.158 -2.247,6.11c-0.872,-0.491 -1.655,-1.05 -2.322,-1.668m11.039,-10.251c1.254,0.934 2.404,2.138 3.366,3.547c0.182,0.267 0.354,0.539 0.517,0.813c-0.881,0.509 -1.996,0.814 -3.198,0.899c-0.102,-1.903 -0.327,-3.735 -0.685,-5.259m-2.187,5.054c-0.798,-0.17 -1.557,-0.415 -2.256,-0.722c1.03,-1.801 2.155,-3.366 3.266,-4.53c0.347,1.365 0.637,3.201 0.76,5.476c-0.585,-0.024 -1.179,-0.097 -1.77,-0.224m-4.713,-2.299c-0.457,-0.427 -0.803,-0.872 -1.037,-1.32c1.034,-0.621 2.178,-1.128 3.396,-1.495c0.725,-0.218 1.459,-0.379 2.19,-0.491c-1.056,1.183 -2.11,2.687 -3.077,4.385c-0.553,-0.319 -1.048,-0.681 -1.472,-1.079m-2.373,-3.515c-0.015,0.056 -0.031,0.113 -0.043,0.171c-0.112,0.52 -0.099,1.053 0.032,1.582c-1.187,0.818 -2.219,1.786 -3.041,2.874c-0.25,0.331 -0.474,0.669 -0.677,1.01c0.611,-2.259 1.941,-4.224 3.729,-5.637m1.035,0.401c0.122,-0.573 0.467,-1.084 0.999,-1.507c1.287,-0.385 2.785,-0.292 4.36,0.284c-0.663,0.115 -1.325,0.268 -1.979,0.466c-1.216,0.365 -2.365,0.864 -3.417,1.471c-0.024,-0.241 -0.012,-0.48 0.037,-0.714m8.949,-1.453c0.379,-0.246 0.728,-0.413 1.019,-0.483c0.553,0.222 1.102,0.505 1.622,0.863c-0.835,-0.209 -1.722,-0.336 -2.641,-0.38m-1.858,-1.181c0.447,0.05 0.925,0.127 1.416,0.241c-0.307,0.165 -0.626,0.371 -0.95,0.619c-0.144,-0.326 -0.299,-0.612 -0.466,-0.86m-1.195,0.433c-0.499,-0.191 -0.992,-0.339 -1.479,-0.445c0.39,-0.044 0.785,-0.069 1.187,-0.069c0.187,0.002 0.418,0.228 0.659,0.665c-0.122,-0.052 -0.244,-0.104 -0.367,-0.151m-12.137,10.242c0,1.127 0.162,2.217 0.457,3.251c0.018,0.069 0.035,0.139 0.056,0.208c0.004,0.013 0.01,0.024 0.014,0.038c1.496,4.838 6.011,8.362 11.333,8.362c2.462,0 4.75,-0.755 6.648,-2.043c0.019,-0.011 0.038,-0.021 0.055,-0.033c0.113,-0.076 0.222,-0.157 0.328,-0.241c2.182,-1.612 3.793,-3.953 4.472,-6.662c0.039,-0.124 0.072,-0.251 0.1,-0.379c0.006,-0.031 0.008,-0.06 0.009,-0.091c0.162,-0.779 0.247,-1.585 0.247,-2.41c0,-1.6 -0.313,-3.154 -0.932,-4.615c-0.119,-0.281 -0.442,-0.413 -0.723,-0.293c-0.281,0.118 -0.412,0.442 -0.294,0.722c0.561,1.325 0.845,2.734 0.845,4.186c0,0.89 -0.11,1.755 -0.315,2.583c-0.164,0.522 -0.45,1.005 -0.846,1.444c0.01,-0.187 0.016,-0.376 0.017,-0.57c0.005,-2.116 -0.581,-4.351 -1.666,-6.451c0.796,-0.684 1.304,-1.528 1.478,-2.472c0.055,-0.3 -0.143,-0.587 -0.442,-0.643c-0.3,-0.056 -0.588,0.142 -0.643,0.442c-0.115,0.625 -0.44,1.198 -0.947,1.684c-0.158,-0.261 -0.322,-0.519 -0.496,-0.774c-0.968,-1.419 -2.118,-2.647 -3.377,-3.627c1.662,0.11 3.197,0.512 4.434,1.204c0.194,0.11 0.452,0.107 0.633,-0.045c0.234,-0.195 0.266,-0.543 0.07,-0.777c-1.777,-2.486 -4.85,-3.857 -8.657,-3.857c-6.537,0 -11.858,5.32 -11.858,11.859"/></clipPath><g clip-path="url(#_clip1)"><rect x="0.567" y="0.261" width="23.719" height="23.718" style="fill:url(#_Radial2);"/></g><g><path d="M26.896,8.616l5.988,0l0,1.228l-2.199,0l0,6.162l-1.588,0l0,-6.162l-2.2,0l0,-1.228l-0.001,0Z" style="fill:#002f54;fill-rule:nonzero;"/><path d="M33.725,16.006l0,-7.39l1.588,0l0,2.917l2.794,0l0,-2.917l1.606,0l0,7.39l-1.586,0l0,-3.246l-2.814,0l0,3.246l-1.588,0Z" style="fill:#002f54;fill-rule:nonzero;"/><path d="M41.006,8.616l4.954,0l0,1.228l-3.366,0l0,1.73l3.152,0l0,1.228l-3.152,0l0,1.976l3.479,0l0,1.228l-5.066,0l0,-7.39l-0.001,0Z" style="fill:#002f54;fill-rule:nonzero;"/><path d="M53.843,8.616l1.79,0l1.29,5.558l0.02,0l1.188,-5.558l1.515,0l-1.883,7.39l-1.76,0l-1.33,-5.63l-0.021,0l-1.434,5.63l-1.8,0l-1.801,-7.39l1.638,0l1.135,5.558l0.022,0l1.431,-5.558Z" style="fill:#002f54;fill-rule:nonzero;"/><path d="M60.185,12.311c0,-2.18 1.105,-3.85 3.551,-3.85c2.445,0 3.551,1.669 3.551,3.85c0,2.181 -1.106,3.847 -3.551,3.847c-2.447,0 -3.551,-1.667 -3.551,-3.847Zm1.687,0c0,1.267 0.298,2.701 1.863,2.701c1.566,0 1.863,-1.434 1.863,-2.701c0,-1.27 -0.297,-2.704 -1.863,-2.704c-1.565,0 -1.863,1.435 -1.863,2.704Z" style="fill:#002f54;fill-rule:nonzero;"/><path d="M69.921,16.006l-1.587,0l0,-7.39l3.141,0c1.27,0.01 2.57,0.419 2.57,1.925c0,0.961 -0.624,1.597 -1.535,1.791l0,0.021c1.219,0.133 1.219,0.879 1.352,1.903c0.072,0.472 0.132,1.342 0.429,1.75l-1.75,0c-0.133,-0.655 -0.205,-1.32 -0.276,-1.986c-0.042,-0.409 -0.145,-0.971 -0.665,-0.991l-1.678,0l0,2.977l-0.001,0Zm0,-4.207l1.329,0c0.698,-0.012 1.106,-0.358 1.106,-1.014c0,-0.655 -0.408,-0.931 -1.106,-0.941l-1.329,0l0,1.955Z" style="fill:#002f54;fill-rule:nonzero;"/><path d="M75.256,16.006l0,-7.39l1.588,0l0,6.162l3.203,0l0,1.228l-4.791,0Z" style="fill:#002f54;fill-rule:nonzero;"/><path d="M80.908,8.616l2.519,0c2.302,-0.02 3.735,1.125 3.735,3.695c0,2.569 -1.433,3.714 -3.735,3.694l-2.519,0l0,-7.389Zm1.586,6.161l0.819,0c1.884,0.021 2.161,-1.29 2.161,-2.466c0,-1.177 -0.277,-2.487 -2.161,-2.467l-0.819,0l0,4.933Z" style="fill:#002f54;fill-rule:nonzero;"/><path d="M91.178,16.006l0,-7.39l2.774,0c1.32,-0.082 2.672,0.472 2.672,1.914c0,0.808 -0.565,1.372 -1.301,1.617l0,0.021c0.933,0.195 1.627,0.84 1.627,1.923c0,1.464 -1.843,1.997 -2.978,1.915l-2.794,0Zm2.825,-1.229c0.747,0 1.259,-0.133 1.259,-0.982c0,-0.85 -0.511,-0.983 -1.259,-0.983l-1.24,0l0,1.966l1.24,0l0,-0.001Zm0,-3.192c0.665,0 1.033,-0.277 1.033,-0.87c0,-0.595 -0.368,-0.87 -1.033,-0.87l-1.24,0l0,1.741l1.24,-0.001Z" style="fill:#002f54;fill-rule:nonzero;"/><path d="M97.446,16.006l2.672,-7.39l1.883,0l2.568,7.39l-1.595,0l-0.533,-1.567l-2.927,0l-0.554,1.567l-1.514,0Zm4.596,-2.794l-1.013,-3.153l-0.022,0l-1.084,3.153l2.119,0Z" style="fill:#002f54;fill-rule:nonzero;"/><path d="M109.803,16.006l-2.917,-6.142l-0.021,0.021l0,6.121l-1.483,0l0,-7.39l2.353,0l2.816,5.814l0.02,-0.022l0,-5.793l1.484,0l0,7.391l-2.252,0Z" style="fill:#002f54;fill-rule:nonzero;"/><path d="M114.944,11.81l0.021,0l2.456,-3.194l1.853,0l-2.713,3.306l2.948,4.084l-1.975,0l-2.569,-3.767l-0.02,0l0,3.767l-1.586,0l0,-7.39l1.586,0l0,3.194l-0.001,0Z" style="fill:#002f54;fill-rule:nonzero;"/></g></g><defs><radialGradient id="_Radial2" cx="0" cy="0" r="1" gradientUnits="userSpaceOnUse" gradientTransform="matrix(19.6435,0,0,19.6436,23.2348,4.67889)"><stop offset="0" style="stop-color:#fff;stop-opacity:1"/><stop offset="0.06" style="stop-color:#e7f6fd;stop-opacity:1"/><stop offset="0.18" style="stop-color:#afe2fa;stop-opacity:1"/><stop offset="0.36" style="stop-color:#37c6f4;stop-opacity:1"/><stop offset="0.54" style="stop-color:#00aeef;stop-opacity:1"/><stop offset="1" style="stop-color:#002f54;stop-opacity:1"/></radialGradient></defs></svg>