<?xml version="1.0" encoding="UTF-8" standalone="no"?>
<svg width="32px" height="32px" viewBox="0 0 32 32" version="1.1" xmlns="http://www.w3.org/2000/svg" xmlns:xlink="http://www.w3.org/1999/xlink">
    <!-- Generator: Sketch 39.1 (31720) - http://www.bohemiancoding.com/sketch -->
    <title>custom-policy-round-32x32</title>
    <desc>Created with Sketch.</desc>
    <defs>
        <circle id="path-1" cx="16" cy="16" r="16"></circle>
        <mask id="mask-2" maskContentUnits="userSpaceOnUse" maskUnits="objectBoundingBox" x="0" y="0" width="32" height="32" fill="white">
            <use xlink:href="#path-1"></use>
        </mask>
    </defs>
    <g id="bg-white" stroke="none" stroke-width="1" fill="none" fill-rule="evenodd">
        <g id="custom-policy-round-32x32">
            <use id="Oval" stroke="#814C89" mask="url(#mask-2)" stroke-width="4" xlink:href="#path-1"></use>
            <path d="M18,16.5 C18,17.8769531 16.8769531,19 15.5,19 C14.1230469,19 13,17.8769531 13,16.5 C13,15.1230469 14.1230469,14 15.5,14 C16.8769531,14 18,15.1230469 18,16.5 L18,16.5 Z M23,15.4355469 C23,15.2695312 22.8828125,15.1132812 22.7167969,15.0839844 L20.9296875,14.8105469 C20.8320313,14.4882812 20.6953125,14.1660156 20.5292969,13.8535156 C20.8613281,13.3945312 21.2226563,12.9648438 21.5546875,12.515625 C21.6035156,12.4472656 21.6328125,12.3789062 21.6328125,12.2910156 C21.6328125,12.2128906 21.6132813,12.1347656 21.5644531,12.0761719 C21.1542969,11.5 20.4707031,10.8945312 19.953125,10.4160156 C19.8847656,10.3574219 19.796875,10.3183594 19.7089844,10.3183594 C19.6210938,10.3183594 19.5332031,10.3476562 19.4746094,10.40625 L18.0878906,11.4511719 C17.8046875,11.3046875 17.5117188,11.1875 17.2089844,11.0898438 L16.9355469,9.29296875 C16.9160156,9.12695312 16.7597656,9 16.5839844,9 L14.4160156,9 C14.2402344,9 14.1035156,9.1171875 14.0644531,9.2734375 C13.9082031,9.859375 13.8496094,10.4941406 13.78125,11.0898438 C13.4785156,11.1875 13.1757813,11.3144531 12.8925781,11.4609375 L11.5449219,10.4160156 C11.4667969,10.3574219 11.3789063,10.3183594 11.2910156,10.3183594 C10.9589844,10.3183594 9.640625,11.7441406 9.40625,12.0664062 C9.35742188,12.1347656 9.31835938,12.203125 9.31835938,12.2910156 C9.31835938,12.3789062 9.35742188,12.4570312 9.41601563,12.5253906 C9.77734375,12.9648438 10.1289063,13.4042969 10.4609375,13.8730469 C10.3046875,14.1660156 10.1777344,14.4589844 10.0800781,14.7714844 L8.26367188,15.0449219 C8.1171875,15.0742187 8,15.25 8,15.3964844 L8,17.5644531 C8,17.7304688 8.1171875,17.8867188 8.28320313,17.9160156 L10.0703125,18.1796875 C10.1679688,18.5117188 10.3046875,18.8339844 10.4707031,19.1464844 C10.1386719,19.6054688 9.77734375,20.0351562 9.4453125,20.484375 C9.39648438,20.5527344 9.3671875,20.6210938 9.3671875,20.7089844 C9.3671875,20.7871094 9.38671875,20.8652344 9.43554688,20.9335938 C9.84570313,21.5 10.5292969,22.1054688 11.046875,22.5742188 C11.1152344,22.6425781 11.203125,22.6816406 11.2910156,22.6816406 C11.3789063,22.6816406 11.4667969,22.6523438 11.5351563,22.59375 L12.9121094,21.5488281 C13.1953125,21.6953125 13.4882813,21.8125 13.7910156,21.9101562 L14.0644531,23.7070312 C14.0839844,23.8730469 14.2402344,24 14.4160156,24 L16.5839844,24 C16.7597656,24 16.8964844,23.8828125 16.9355469,23.7265625 C17.0917969,23.140625 17.1503906,22.5058594 17.21875,21.9101562 C17.5214844,21.8125 17.8242188,21.6855469 18.1074219,21.5390625 L19.4550781,22.59375 C19.5332031,22.6425781 19.6210938,22.6816406 19.7089844,22.6816406 C20.0410156,22.6816406 21.359375,21.2460938 21.59375,20.9335938 C21.6523438,20.8652344 21.6816406,20.796875 21.6816406,20.7089844 C21.6816406,20.6210938 21.6425781,20.5332031 21.5839844,20.4648438 C21.2226563,20.0253906 20.8710938,19.5957031 20.5390625,19.1171875 C20.6953125,18.8339844 20.8125,18.5410156 20.9199219,18.2285156 L22.7265625,17.9550781 C22.8828125,17.9257812 23,17.75 23,17.6035156 L23,15.4355469 Z" id="" fill="#814C89"></path>
        </g>
    </g>
</svg>