<?xml version="1.0" encoding="UTF-8"?>
<svg width="82px" height="82px" viewBox="0 0 82 82" version="1.1" xmlns="http://www.w3.org/2000/svg" xmlns:xlink="http://www.w3.org/1999/xlink" style="background: #E1E1E1;">
    <!-- Generator: Sketch 45.2 (43514) - http://www.bohemiancoding.com/sketch -->
    <title>wbg-study-blank</title>
    <desc>Created with Sketch.</desc>
    <defs></defs>
    <g id="Page-1" stroke="none" stroke-width="1" fill="none" fill-rule="evenodd">
        <g id="wbg-study-blank" stroke="#C6C6C6" fill="#FFFFFF">
            <path d="M52.2705078,41.2028809 C52.2705078,35.1070395 47.2987223,30.1352539 41.2028809,30.1352539 C35.1070395,30.1352539 30.1352539,35.1070395 30.1352539,41.2028809 C30.1352539,47.2987223 35.1070395,52.2705078 41.2028809,52.2705078 C47.2987223,52.2705078 52.2705078,47.2987223 52.2705078,41.2028809 Z M74.4057617,36.4904928 L74.4057617,46.0882006 C74.4057617,46.7366943 73.8869667,47.5148869 73.19524,47.6445856 L65.1971502,48.8551073 C64.7215881,50.2385607 64.2027931,51.5355482 63.5110664,52.7893028 C64.9809856,54.9077158 66.5373707,56.8099642 68.1369886,58.7554455 C68.3963861,59.0580759 68.5693178,59.4471722 68.5693178,59.8362684 C68.5693178,60.2253647 68.4396191,60.5279951 68.1802216,60.8306255 C67.1426315,62.2140789 61.3061876,68.5693178 59.8362684,68.5693178 C59.4471722,68.5693178 59.0580759,68.3963861 58.7122126,68.1802216 L52.7460699,63.5110664 C51.4923153,64.1595602 50.1520948,64.7215881 48.8118744,65.1539173 C48.509244,67.7911253 48.2498465,70.601265 47.5581198,73.19524 C47.3851881,73.8869667 46.7799273,74.4057617 46.0017347,74.4057617 L36.404027,74.4057617 C35.6258345,74.4057617 34.9341078,73.8437338 34.8476419,73.1087742 L33.6371202,65.1539173 C32.2968998,64.7215881 30.9999123,64.2027931 29.7461576,63.5542994 L23.6503162,68.1802216 C23.3476858,68.4396191 22.9585896,68.5693178 22.5694933,68.5693178 C22.180397,68.5693178 21.7913008,68.3963861 21.4886703,68.0937557 C19.1973257,66.0185757 16.1710215,63.3381348 14.3552389,60.8306255 C14.1390743,60.5279951 14.0526085,60.1821318 14.0526085,59.8362684 C14.0526085,59.4471722 14.1823072,59.1445417 14.3984718,58.8419113 C15.868391,56.8531971 17.468009,54.9509487 18.9379282,52.9190016 C18.2029686,51.5355482 17.5977077,50.1088619 17.1653786,48.6389427 L9.25375462,47.4716539 C8.51879501,47.3419552 8,46.6502285 8,45.9152689 L8,36.3175611 C8,35.6690674 8.51879501,34.8908749 9.16728878,34.7611761 L17.2086115,33.5506544 C17.6409407,32.167201 18.2029686,30.8702135 18.8946953,29.573226 C17.4247761,27.4980459 15.868391,25.5525646 14.2687731,23.6070833 C14.0093756,23.3044529 13.8364439,22.9585896 13.8364439,22.5694933 C13.8364439,22.180397 14.0093756,21.8777666 14.2255402,21.5751362 C15.2631302,20.1484499 21.0995741,13.8364439 22.5694933,13.8364439 C22.9585896,13.8364439 23.3476858,14.0093756 23.6935492,14.2687731 L29.6596918,18.8946953 C30.9134464,18.2462015 32.2536669,17.6841736 33.5938873,17.2518444 C33.8965178,14.6146364 34.1559153,11.8044968 34.8476419,9.2105217 C35.0205736,8.51879501 35.6258345,8 36.404027,8 L46.0017347,8 C46.7799273,8 47.4716539,8.56202793 47.5581198,9.29698753 L48.7686415,17.2518444 C50.1088619,17.6841736 51.4058495,18.2029686 52.6596041,18.8514624 L58.7986784,14.2255402 C59.0580759,13.9661427 59.4471722,13.8364439 59.8362684,13.8364439 C60.2253647,13.8364439 60.6144609,14.0093756 60.9170914,14.2687731 C63.208436,16.3871861 66.2347403,19.067627 68.0505228,21.6183691 C68.2666874,21.8777666 68.3531532,22.22363 68.3531532,22.5694933 C68.3531532,22.9585896 68.2234545,23.26122 68.0072899,23.5638504 C66.5373707,25.5525646 64.9377527,27.454813 63.4678335,29.4867601 C64.2027931,30.8702135 64.808054,32.2968998 65.2403831,33.7235861 L73.1520071,34.9341078 C73.8869667,35.0638065 74.4057617,35.7555332 74.4057617,36.4904928 Z" id="cog---FontAwesome"></path>
        </g>
    </g>
</svg>