<?xml version="1.0" encoding="UTF-8" standalone="no"?>
<svg width="256px" height="256px" viewBox="0 0 256 256" version="1.1" xmlns="http://www.w3.org/2000/svg" xmlns:xlink="http://www.w3.org/1999/xlink">
    <!-- Generator: Sketch 39.1 (31720) - http://www.bohemiancoding.com/sketch -->
    <title>external-round</title>
    <desc>Created with Sketch.</desc>
    <defs>
        <circle id="path-1" cx="128" cy="128" r="128"></circle>
        <mask id="mask-2" maskContentUnits="userSpaceOnUse" maskUnits="objectBoundingBox" x="0" y="0" width="256" height="256" fill="white">
            <use xlink:href="#path-1"></use>
        </mask>
    </defs>
    <g id="bg-white" stroke="none" stroke-width="1" fill="none" fill-rule="evenodd">
        <g id="external-round">
            <use id="Oval" stroke="#0088CC" mask="url(#mask-2)" stroke-width="32" xlink:href="#path-1"></use>
            <path d="M177.571546,127.428525 C177.571546,125.151737 176.701009,122.941913 175.093865,121.401733 L131.500063,77.8079306 C129.892918,76.2007858 127.683094,75.2632847 125.406305,75.2632847 C123.129517,75.2632847 120.986657,76.2007858 119.379512,77.8079306 L114.357185,82.830258 C112.75004,84.3704384 111.812539,86.5802625 111.812539,88.8570509 C111.812539,91.1338393 112.75004,93.3436634 114.357185,94.8838438 L133.977744,114.571367 L86.8348308,114.571367 C82.0133964,114.571367 79,118.589229 79,123.142806 L79,131.714245 C79,136.267822 82.0133964,140.285684 86.8348308,140.285684 L133.977744,140.285684 L114.357185,159.906243 C112.75004,161.513388 111.812539,163.723212 111.812539,166 C111.812539,168.276788 112.75004,170.486612 114.357185,172.093757 L119.379512,177.116085 C120.986657,178.656265 123.129517,179.593766 125.406305,179.593766 C127.683094,179.593766 129.892918,178.656265 131.500063,177.116085 L175.093865,133.522283 C176.701009,131.915138 177.571546,129.705314 177.571546,127.428525 L177.571546,127.428525 Z" id="ï¡" fill="#0086CC"></path>
        </g>
    </g>
</svg>