<?xml version="1.0" encoding="UTF-8" standalone="no"?>
<svg width="32px" height="32px" viewBox="0 0 32 32" version="1.1" xmlns="http://www.w3.org/2000/svg" xmlns:xlink="http://www.w3.org/1999/xlink">
    <!-- Generator: Sketch 39.1 (31720) - http://www.bohemiancoding.com/sketch -->
    <title>licensed-round-32x32</title>
    <desc>Created with Sketch.</desc>
    <defs>
        <circle id="path-1" cx="16" cy="16" r="16"></circle>
        <mask id="mask-2" maskContentUnits="userSpaceOnUse" maskUnits="objectBoundingBox" x="0" y="0" width="32" height="32" fill="white">
            <use xlink:href="#path-1"></use>
        </mask>
    </defs>
    <g id="bg-white" stroke="none" stroke-width="1" fill="none" fill-rule="evenodd">
        <g id="licensed-round-32x32">
            <use id="Oval" stroke="#E68F00" mask="url(#mask-2)" stroke-width="4" xlink:href="#path-1"></use>
            <path d="M12.6363636,15.2727273 L18.4545455,15.2727273 L18.4545455,13.0909091 C18.4545455,12.2878748 18.1704574,11.6022756 17.6022727,11.0340909 C17.0340881,10.4659062 16.3484889,10.1818182 15.5454545,10.1818182 C14.7424202,10.1818182 14.056821,10.4659062 13.4886364,11.0340909 C12.9204517,11.6022756 12.6363636,12.2878748 12.6363636,13.0909091 L12.6363636,15.2727273 Z M22.0909091,16.3636364 L22.0909091,22.9090909 C22.0909091,23.2121227 21.9848495,23.4696959 21.7727273,23.6818182 C21.560605,23.8939405 21.3030318,24 21,24 L10.0909091,24 C9.78787727,24 9.53030409,23.8939405 9.31818182,23.6818182 C9.10605955,23.4696959 9,23.2121227 9,22.9090909 L9,16.3636364 C9,16.0606045 9.10605955,15.8030314 9.31818182,15.5909091 C9.53030409,15.3787868 9.78787727,15.2727273 10.0909091,15.2727273 L10.4545455,15.2727273 L10.4545455,13.0909091 C10.4545455,11.6969627 10.9545405,10.500005 11.9545455,9.5 C12.9545505,8.499995 14.1515082,8 15.5454545,8 C16.9394009,8 18.1363586,8.499995 19.1363636,9.5 C20.1363686,10.500005 20.6363636,11.6969627 20.6363636,13.0909091 L20.6363636,15.2727273 L21,15.2727273 C21.3030318,15.2727273 21.560605,15.3787868 21.7727273,15.5909091 C21.9848495,15.8030314 22.0909091,16.0606045 22.0909091,16.3636364 L22.0909091,16.3636364 Z" id="" fill="#E68F00"></path>
        </g>
    </g>
</svg>