<?xml version="1.0" encoding="UTF-8" standalone="no"?>
<svg width="32px" height="32px" viewBox="0 0 32 32" version="1.1" xmlns="http://www.w3.org/2000/svg" xmlns:xlink="http://www.w3.org/1999/xlink">
    <!-- Generator: Sketch 39.1 (31720) - http://www.bohemiancoding.com/sketch -->
    <title>not-available-round-32x32</title>
    <desc>Created with Sketch.</desc>
    <defs></defs>
    <g id="old-survey-data-access-bg-white" stroke="none" stroke-width="1" fill="none" fill-rule="evenodd">
        <g id="not-available-round-32x32" fill="#D0021B">
            <path d="M25.988534,7.50730605 C27.8741784,9.77995121 29.0078125,12.6989946 29.0078125,15.8828125 C29.0078125,23.1315498 23.1315498,29.0078125 15.8828125,29.0078125 C12.6989946,29.0078125 9.77995121,27.8741784 7.50730605,25.988534 L25.988534,7.50730605 Z M24.5161071,5.99662623 C22.2084716,3.979779 19.1883449,2.7578125 15.8828125,2.7578125 C8.63407516,2.7578125 2.7578125,8.63407516 2.7578125,15.8828125 C2.7578125,19.1883449 3.979779,22.2084716 5.99662623,24.5161071 L24.5161071,5.99662623 Z M16,31 C24.2842712,31 31,24.2842712 31,16 C31,7.71572875 24.2842712,1 16,1 C7.71572875,1 1,7.71572875 1,16 C1,24.2842712 7.71572875,31 16,31 Z" id="Combined-Shape"></path>
        </g>
    </g>
</svg>