<?xml version="1.0" encoding="UTF-8"?>
<svg width="32px" height="32px" viewBox="0 0 32 32" version="1.1" xmlns="http://www.w3.org/2000/svg" xmlns:xlink="http://www.w3.org/1999/xlink">
    <!-- Generator: Sketch 51.2 (57519) - http://www.bohemiancoding.com/sketch -->
    <title>open-data-32</title>
    <desc>Created with Sketch.</desc>
    <defs>
        <circle id="path-1" cx="16" cy="16" r="16"></circle>
    </defs>
    <g id="Page-1" stroke="none" stroke-width="1" fill="none" fill-rule="evenodd">
        <g id="open-data-32">
            <g id="Oval">
                <g id="path-1-Clipped">
                    <g>
                        <mask id="mask-2" fill="white">
                            <use xlink:href="#path-1"></use>
                        </mask>
                        <g id="path-1"></g>
                        <circle id="path-1" stroke="#814C89" stroke-width="4" fill="#814C89" mask="url(#mask-2)" cx="16" cy="16" r="16"></circle>
                    </g>
                </g>
            </g>
            <g id="Combined-Shape" transform="translate(8.000000, 6.000000)" fill="#FFFFFF" fill-rule="nonzero">
                <path d="M4,6.20417376 L1.77777777,6.20417376 L1.77777777,6.04545452 C1.77777777,4.39014327 2.38888276,2.96875593 3.61111111,1.78124999 C4.83333947,0.593744057 6.29628773,0 7.99999991,0 C9.70371227,0 11.1666605,0.593744057 12.3888888,1.78124999 C13.6111172,2.96875593 14.2222221,4.39014327 14.2222221,6.04545452 L14.2222221,8.63636355 L14.6666667,8.63636355 C15.0370388,8.63636355 15.3518505,8.76230938 15.6111111,9.01420452 C15.8703716,9.26609976 16,9.57196788 16,9.93181817 L16,17.7045454 C16,18.0643958 15.8703716,18.3702638 15.6111111,18.6221591 C15.3518505,18.8740544 15.0370388,19 14.6666667,19 L1.33333332,19 C0.962961102,19 0.64814944,18.8740544 0.388888889,18.6221591 C0.129628338,18.3702638 0,18.0643958 0,17.7045454 L0,9.93181817 C0,9.57196788 0.129628338,9.26609976 0.388888889,9.01420452 C0.64814944,8.76230938 0.962961102,8.63636355 1.33333332,8.63636355 L1.77696772,8.63868514 L4.44518942,8.63868514 L4.9357211,8.63663562 L4.9357211,8.63636355 L4.44444444,8.63636355 L4.9357211,8.63636355 L4.9357211,6.2166972 L4,6.2166972 L4,6.20417376 Z M4,6.20417376 L5.0008381,6.20417376 L5.0008381,8.63636355 L4.9357211,8.63636355 L4.9357211,8.63636355 L5.0008381,8.63636355 L4.9357211,8.63663562 L4.9357211,8.65686207 L12,8.65686207 L12,5.42857145 C12,4.48213814 11.6093788,3.6741105 10.8281249,3.0044643 C10.0468711,2.33481809 9.1041721,2 7.9999999,2 C6.8958277,2 5.9531289,2.33481809 5.1718749,3.0044643 C4.390621,3.6741105 4,4.48213814 4,5.42857145 L4,5.58609732 L4,6.20417376 Z" id="path-3"></path>
            </g>
        </g>
    </g>
</svg>