<?xml version="1.0" encoding="UTF-8"?>
<svg width="256px" height="256px" viewBox="0 0 256 256" version="1.1" xmlns="http://www.w3.org/2000/svg" xmlns:xlink="http://www.w3.org/1999/xlink">
    <!-- Generator: Sketch 51.2 (57519) - http://www.bohemiancoding.com/sketch -->
    <title>Slice 1</title>
    <desc>Created with Sketch.</desc>
    <defs>
        <circle id="path-1" cx="128" cy="128" r="128"></circle>
        <path d="M106.714286,97.9860779 L88.2857143,97.9860779 L88.2857143,96.8571429 C88.2857143,85.0832745 92.5088863,74.9732565 100.955357,66.5267857 C109.401828,58.0803149 119.511846,53.8571429 131.285714,53.8571429 C143.059583,53.8571429 153.169601,58.0803149 161.616071,66.5267857 C170.062542,74.9732565 174.285714,85.0832745 174.285714,96.8571429 L174.285714,115.285714 L177.357143,115.285714 C179.916679,115.285714 182.092253,116.181539 183.883929,117.973214 C185.675604,119.76489 186.571429,121.940463 186.571429,124.5 L186.571429,179.785714 C186.571429,182.345251 185.675604,184.520824 183.883929,186.3125 C182.092253,188.104176 179.916679,189 177.357143,189 L85.2142857,189 C82.6547491,189 80.4791756,188.104176 78.6875,186.3125 C76.8958244,184.520824 76,182.345251 76,179.785714 L76,124.5 C76,121.940463 76.8958244,119.76489 78.6875,117.973214 C80.4791756,116.181539 82.6547491,115.285714 85.2142857,115.285714 L88.2801163,115.302227 L106.719434,115.302227 L106.719434,115.285714 L106.714286,115.285714 L106.714286,97.9860779 Z M106.714286,97.9860779 L106.719434,97.9860779 L106.719434,115.285714 L111.51827,115.285714 L155.857143,115.285714 L155.857143,96.8571429 C155.857143,90.0743708 153.457613,84.2835061 148.658482,79.484375 C143.859351,74.6852439 138.068486,72.2857143 131.285714,72.2857143 C124.502942,72.2857143 118.712078,74.6852439 113.912946,79.484375 C109.113815,84.2835061 106.714286,90.0743708 106.714286,96.8571429 L106.714286,97.9860779 Z" id="path-3"></path>
    </defs>
    <g id="Page-1" stroke="none" stroke-width="1" fill="none" fill-rule="evenodd">
        <g id="Oval">
            <g id="path-1-Clipped">
                <mask id="mask-2" fill="white">
                    <use xlink:href="#path-1"></use>
                </mask>
                <g id="path-1"></g>
                <circle id="path-1" stroke="#814C89" stroke-width="32" mask="url(#mask-2)" cx="128" cy="128" r="128"></circle>
            </g>
        </g>
        <mask id="mask-4" fill="white">
            <use xlink:href="#path-3"></use>
        </mask>
        <use id="Combined-Shape" fill="#814C89" fill-rule="nonzero" xlink:href="#path-3"></use>
    </g>
</svg>