<?xml version="1.0" encoding="UTF-8" standalone="no"?>
<svg width="256px" height="256px" viewBox="0 0 256 256" version="1.1" xmlns="http://www.w3.org/2000/svg" xmlns:xlink="http://www.w3.org/1999/xlink">
    <!-- Generator: Sketch 39.1 (31720) - http://www.bohemiancoding.com/sketch -->
    <title>public-use-round</title>
    <desc>Created with Sketch.</desc>
    <defs>
        <circle id="path-1" cx="128" cy="128" r="128"></circle>
        <mask id="mask-2" maskContentUnits="userSpaceOnUse" maskUnits="objectBoundingBox" x="0" y="0" width="256" height="256" fill="white">
            <use xlink:href="#path-1"></use>
        </mask>
    </defs>
    <g id="bg-white" stroke="none" stroke-width="1" fill="none" fill-rule="evenodd">
        <g id="public-use-round">
            <use id="Oval" stroke="#529600" mask="url(#mask-2)" stroke-width="32" xlink:href="#path-1"></use>
            <path d="M106.714286,115.285714 L155.857143,115.285714 L155.857143,96.8571429 C155.857143,90.0743708 153.457613,84.2835061 148.658482,79.484375 C143.859351,74.6852439 138.068486,72.2857143 131.285714,72.2857143 C124.502942,72.2857143 118.712078,74.6852439 113.912946,79.484375 C109.113815,84.2835061 106.714286,90.0743708 106.714286,96.8571429 L106.714286,115.285714 Z M88.2801163,115.285714 L85.2142857,115.285714 C82.6547491,115.285714 80.4791756,116.181539 78.6875,117.973214 C76.8958244,119.76489 76,121.940463 76,124.5 L76,179.785714 C76,182.345251 76.8958244,184.520824 78.6875,186.3125 C80.4791756,188.104176 82.6547491,189 85.2142857,189 L177.357143,189 C179.916679,189 182.092253,188.104176 183.883929,186.3125 C185.675604,184.520824 186.571429,182.345251 186.571429,179.785714 L186.571429,124.5 C186.571429,121.940463 185.675604,119.76489 183.883929,117.973214 C182.092253,116.181539 179.916679,115.285714 177.357143,115.285714 L174.285714,115.285714 L174.285714,96.8571429 C174.285714,85.0832745 170.062542,74.9732565 161.616071,66.5267857 C153.169601,58.0803149 143.059583,53.8571429 131.285714,53.8571429 C119.511846,53.8571429 109.401828,58.0803149 100.955357,66.5267857 C92.5088863,74.9732565 88.2857143,85.0832745 88.2857143,96.8571429 L88.2857143,97.9860779 L106.719434,97.9860779 L106.719434,115.302227 L88.2801163,115.302227 L88.2801163,115.285714 Z" id="Combined-Shape" fill="#529600"></path>
        </g>
    </g>
</svg>