<svg id="Layer_1" data-name="Layer 1" xmlns="http://www.w3.org/2000/svg" viewBox="0 0 31.24 31.28"><title>ccby40-round-32x32</title><path d="M27.09,4.89A15.13,15.13,0,0,1,31.62,16a14.87,14.87,0,0,1-4.46,11A15.41,15.41,0,0,1,16,31.64,15,15,0,0,1,5,27,15,15,0,0,1,.38,16,15.32,15.32,0,0,1,5,4.89,14.86,14.86,0,0,1,16,.36,15.13,15.13,0,0,1,27.09,4.89ZM7,6.93A12.47,12.47,0,0,0,3.2,16,12.29,12.29,0,0,0,7,25a12.34,12.34,0,0,0,9,3.8A12.52,12.52,0,0,0,25.14,25a11.94,11.94,0,0,0,3.68-9,12.38,12.38,0,0,0-3.74-9.09,12.33,12.33,0,0,0-9-3.73A12.12,12.12,0,0,0,7,6.93Zm6.73,7.55A1.89,1.89,0,0,0,12,13.2c-1.38,0-2.07.93-2.07,2.78s.69,2.79,2.07,2.79A2,2,0,0,0,14,17.41l1.91,1a4.41,4.41,0,0,1-4.09,2.43,4.51,4.51,0,0,1-3.38-1.29A4.87,4.87,0,0,1,7.12,16a4.75,4.75,0,0,1,1.31-3.54,4.39,4.39,0,0,1,3.26-1.32,4.36,4.36,0,0,1,4.13,2.28Zm9,0A1.87,1.87,0,0,0,21,13.2c-1.41,0-2.11.93-2.11,2.78s.7,2.79,2.11,2.79a1.93,1.93,0,0,0,1.91-1.36l1.95,1a4.41,4.41,0,0,1-4.09,2.43,4.52,4.52,0,0,1-3.37-1.29A4.91,4.91,0,0,1,16.16,16a4.82,4.82,0,0,1,1.29-3.54,4.39,4.39,0,0,1,3.28-1.32,4.36,4.36,0,0,1,4.13,2.28Z" transform="translate(-0.38 -0.36)"/></svg>