<svg id="Layer_1" data-name="Layer 1" xmlns="http://www.w3.org/2000/svg" xmlns:xlink="http://www.w3.org/1999/xlink" viewBox="0 0 36 36"><defs><style>.cls-1{fill:#fff;}.cls-2{mask:url(#mask);}.cls-3{fill:#2968e5;stroke:#2968e5;stroke-width:4px;}</style><mask id="mask" x="0" y="0" width="36" height="36" maskUnits="userSpaceOnUse"><g transform="translate(2 2)"><g id="mask-2"><circle id="path-1" class="cls-1" cx="16" cy="16" r="16"/></g></g></mask></defs><title>research-public-use-round-32x32</title><g id="Oval"><g id="path-1-Clipped"><g class="cls-2"><circle class="cls-3" cx="18" cy="18" r="16"/></g></g></g><path id="Combined-Shape" class="cls-1" d="M13.61,12.22H11.44v-.13A4.93,4.93,0,0,1,12.93,8.5a5,5,0,0,1,7.14,0,4.93,4.93,0,0,1,1.49,3.59v2.18h.36a1,1,0,0,1,.76.32,1.06,1.06,0,0,1,.32.77v6.55a1.06,1.06,0,0,1-.32.77,1,1,0,0,1-.76.32H11.08a1,1,0,0,1-.76-.32,1.06,1.06,0,0,1-.32-.77V15.36a1.06,1.06,0,0,1,.32-.77,1,1,0,0,1,.76-.32h2.53Zm0,0v2h5.78V12a3,3,0,0,0-.85-2.13,2.8,2.8,0,0,0-4.08,0A3,3,0,0,0,13.61,12v.21Z" transform="translate(2 2)"/></svg>