<svg id="Layer_1" data-name="Layer 1" xmlns="http://www.w3.org/2000/svg" xmlns:xlink="http://www.w3.org/1999/xlink" viewBox="0 0 32 32"><defs><style>.cls-1,.cls-4{fill:#fff;}.cls-2{mask:url(#mask);}.cls-3{fill:#243871;}.cls-4{fill-rule:evenodd;}</style><mask id="mask" x="0" y="0" width="32" height="32" maskUnits="userSpaceOnUse"><g id="mask-2"><circle id="path-1" class="cls-1" cx="16" cy="16" r="16"/></g></mask></defs><title>public-research-licensed-round-32x32</title><g class="cls-2"><g id="licensed-round-32x32"><g id="Oval"><circle class="cls-3" cx="16" cy="16" r="16"/></g><path class="cls-4" d="M12.64,15.27h5.81V13.09a2.91,2.91,0,0,0-5-2.06,2.81,2.81,0,0,0-.85,2.06Zm9.45,1.09v6.55A1.09,1.09,0,0,1,21,24H10.09A1.09,1.09,0,0,1,9,22.91V16.36a1.09,1.09,0,0,1,1.09-1.09h.36V13.09A5.12,5.12,0,0,1,15.55,8a5.12,5.12,0,0,1,5.09,5.09v2.18H21a1.09,1.09,0,0,1,1.09,1.09Z"/></g></g></svg>