<svg xmlns="http://www.w3.org/2000/svg" viewBox="0 0 48 48" width="48px" height="48px">
  <path fill="#263238" d="M24,4C12.954,4,4,12.954,4,24c0,8.834,5.731,16.328,13.682,18.974c1.001,0.184,1.369-0.434,1.369-0.964c0-0.476-0.017-2.049-0.026-3.72c-5.565,1.209-6.74-2.682-6.74-2.682c-0.911-2.315-2.223-2.931-2.223-2.931c-1.817-1.242,0.138-1.217,0.138-1.217c2.009,0.142,3.066,2.063,3.066,2.063c1.786,3.06,4.686,2.176,5.83,1.664c0.182-1.294,0.699-2.176,1.272-2.676c-4.443-0.505-9.113-2.222-9.113-9.89c0-2.185,0.781-3.972,2.063-5.371c-0.207-0.505-0.894-2.54,0.195-5.295c0,0,1.682-0.538,5.509,2.051c1.598-0.444,3.311-0.667,5.012-0.675c1.701,0.008,3.414,0.231,5.012,0.675c3.827-2.589,5.509-2.051,5.509-2.051c1.089,2.755,0.402,4.79,0.195,5.295c1.282,1.399,2.063,3.186,2.063,5.371c0,7.688-4.68,9.38-9.139,9.875c0.718,0.619,1.357,1.834,1.357,3.696c0,2.676-0.026,4.831-0.026,5.489c0,0.534,0.362,1.156,1.378,0.961C38.269,40.328,44,32.834,44,24C44,12.954,35.046,4,24,4z"/>
</svg> 