<?xml version="1.0" encoding="UTF-8"?>
<svg width="32px" height="32px" viewBox="0 0 32 32" version="1.1" xmlns="http://www.w3.org/2000/svg" xmlns:xlink="http://www.w3.org/1999/xlink">
    <!-- Generator: Sketch 51.2 (57519) - http://www.bohemiancoding.com/sketch -->
    <title>public-use-round-32x32</title>
    <desc>Created with Sketch.</desc>
    <defs>
        <circle id="path-1" cx="16" cy="16" r="16"></circle>
    </defs>
    <g id="Page-1" stroke="none" stroke-width="1" fill="none" fill-rule="evenodd">
        <g id="public-use-round-32x32">
            <g id="Oval">
                <g id="path-1-Clipped">
                    <mask id="mask-2" fill="white">
                        <use xlink:href="#path-1"></use>
                    </mask>
                    <g id="path-1"></g>
                    <circle id="path-1" stroke="#529600" stroke-width="4" fill="#529600" mask="url(#mask-2)" cx="16" cy="16" r="16"></circle>
                </g>
            </g>
            <path d="M13.6111111,12.2245674 L11.4444444,12.2245674 L11.4444444,12.0909091 C11.4444444,10.6969627 11.9409673,9.500005 12.9340278,8.5 C13.9270883,7.499995 15.1157338,7 16.5,7 C17.8842662,7 19.0729117,7.499995 20.0659722,8.5 C21.0590327,9.500005 21.5555556,10.6969627 21.5555556,12.0909091 L21.5555556,14.2727273 L21.9166667,14.2727273 C22.2175941,14.2727273 22.4733786,14.3787868 22.6840278,14.5909091 C22.894677,14.8030314 23,15.0606045 23,15.3636364 L23,21.9090909 C23,22.2121227 22.894677,22.4696959 22.6840278,22.6818182 C22.4733786,22.8939405 22.2175941,23 21.9166667,23 L11.0833333,23 C10.7824059,23 10.5266214,22.8939405 10.3159722,22.6818182 C10.105323,22.4696959 10,22.2121227 10,21.9090909 L10,15.3636364 C10,15.0606045 10.105323,14.8030314 10.3159722,14.5909091 C10.5266214,14.3787868 10.7824059,14.2727273 11.0833333,14.2727273 L11.4437863,14.2727273 L11.4437863,14.2746823 L13.6117164,14.2746823 L13.6117164,14.2727273 L13.6111111,12.2245674 Z M13.6117164,12.2245674 L13.6117164,14.2727273 L19.3888889,14.2727273 L19.3888889,12.012987 C19.3888889,11.1812729 19.1067737,10.471188 18.5425347,9.88271103 C17.9782958,9.29423407 17.2974577,9 16.5,9 C15.7025423,9 15.0217042,9.29423407 14.4574653,9.88271103 C13.8932263,10.471188 13.6111111,11.1812729 13.6111111,12.012987 L13.6111111,12.2245674 Z" id="Combined-Shape" fill="#FFFFFF" fill-rule="nonzero"></path>
        </g>
    </g>
</svg>